<svg width="43" height="43" viewBox="0 0 43 43" fill="none" xmlns="http://www.w3.org/2000/svg">
<path d="M8.08916 14.7732L17.8812 11.4099V18.2217C16.4337 17.0297 14.2624 17.2851 13.1129 18.7326C11.9634 20.1802 12.1763 22.3514 13.6238 23.5009C15.0713 24.693 17.2426 24.4376 18.3921 22.9901C18.8605 22.394 19.1585 21.6277 19.1585 20.8613C19.1585 20.8188 19.1585 20.7762 19.1585 20.7336C19.1585 20.691 19.1585 20.691 19.1585 20.6485V6.64154C19.1585 6.30095 18.8605 6.00293 18.5199 6.00293C18.4347 6.00293 18.3921 6.00293 18.307 6.0455L7.23768 9.87719C6.98223 9.96234 6.81194 10.2178 6.81194 10.4732V21.5851C5.36441 20.4356 3.19312 20.691 2.04362 22.1386C0.85154 23.6287 1.10699 25.7574 2.55451 26.9069C4.00204 28.099 6.17332 27.8435 7.32283 26.396C7.79114 25.8 8.08916 25.0336 8.08916 24.2673C8.08916 24.2247 8.08916 24.1821 8.08916 24.1396C8.08916 24.097 8.08916 24.097 8.08916 24.0544V14.7732ZM15.7525 22.9901C14.5605 22.9901 13.6238 22.0534 13.6238 20.8613C13.6238 19.6693 14.5605 18.7326 15.7525 18.7326C16.9446 18.7326 17.8812 19.6693 17.8812 20.8613C17.8812 22.0534 16.9446 22.9901 15.7525 22.9901ZM17.8812 7.5356V10.0475L8.08916 13.4109V10.899L17.8812 7.5356ZM4.68322 26.396C3.49114 26.396 2.55451 25.4594 2.55451 24.2673C2.55451 23.0752 3.49114 22.1386 4.68322 22.1386C5.8753 22.1386 6.81194 23.0752 6.81194 24.2673C6.81194 25.4594 5.8753 26.396 4.68322 26.396Z" fill="white"/>
<path d="M34.613 26.1406C32.6971 25.204 32.3565 23.6713 32.3139 23.5862C32.2714 23.2456 31.9734 22.9901 31.6328 22.9901C31.2922 23.0327 31.0367 23.3307 31.0367 23.6713V34.3574C29.5466 33.2079 27.4179 33.4634 26.2684 34.9109C25.1189 36.401 25.3743 38.5297 26.8219 39.6792C28.312 40.8287 30.4407 40.5733 31.5902 39.1258C31.9734 38.6149 32.2288 38.0188 32.3139 37.3802C32.3139 37.3376 32.3139 37.2951 32.3139 37.2099V26.0555C32.8248 26.5664 33.3783 26.9921 34.0169 27.2901C35.6347 28.099 35.8902 28.8654 35.8902 30.1C35.8902 30.4406 36.1882 30.7386 36.5288 30.7386C36.8694 30.7386 37.1674 30.4406 37.1674 30.1C37.21 28.1842 36.4862 27.0772 34.613 26.1406ZM28.9506 39.1683C27.7585 39.1683 26.8219 38.2317 26.8219 37.0396C26.8219 35.8475 27.7585 34.9109 28.9506 34.9109C30.1427 34.9109 31.0793 35.8475 31.0793 37.0396C31.0793 38.2317 30.1427 39.1683 28.9506 39.1683Z" fill="white"/>
<path d="M37.891 8.72773C37.891 8.38713 37.593 8.08911 37.2524 8.08911C36.9118 8.08911 36.6138 8.38713 36.6138 8.72773C36.6138 8.81287 36.4861 16.6465 23.3306 23.501C11.7079 29.5465 12.0059 39.4238 12.0485 39.8495C12.0485 40.1901 12.3465 40.4455 12.6871 40.4455H12.7297C13.0703 40.4455 13.3683 40.1475 13.3257 39.7644C13.3257 39.6792 13.0277 30.3129 23.9693 24.6079C37.7208 17.4129 37.891 9.06832 37.891 8.72773Z" fill="white"/>
<path d="M24.4803 17.0297C24.608 17.0297 24.6931 16.9872 24.7783 16.9446C31.7179 13.0278 33.1228 6.55647 33.1654 6.30103C33.2506 5.96043 32.9951 5.61984 32.6545 5.53469C32.3139 5.44954 31.9733 5.70499 31.8882 6.04558C30.6961 10.2179 27.8862 13.7515 24.0971 15.8377C23.7991 16.008 23.6714 16.3911 23.8417 16.6891C24.012 16.902 24.2248 17.0297 24.4803 17.0297Z" fill="white"/>
</svg>
