<svg width="43" height="43" viewBox="0 0 43 43" fill="none" xmlns="http://www.w3.org/2000/svg">
<path d="M17.8936 19.446C14.5981 19.446 11.9166 22.1275 11.9166 25.423C11.9166 28.7185 14.5977 31.3996 17.8936 31.3996C21.1895 31.3996 23.8706 28.7185 23.8706 25.423C23.8706 22.1275 21.1891 19.446 17.8936 19.446ZM17.8936 30.1145C15.3068 30.1145 13.2021 28.0102 13.2021 25.4234C13.2021 22.8367 15.3068 20.7319 17.8936 20.7319C20.4808 20.7319 22.5851 22.8367 22.5851 25.4234C22.5851 28.0102 20.4804 30.1145 17.8936 30.1145Z" fill="white"/>
<path d="M5.31278 19.4465C4.95756 19.4465 4.67004 19.734 4.67004 20.0893V30.7569C4.67004 31.1117 4.95756 31.3996 5.31278 31.3996C5.66799 31.3996 5.95551 31.1117 5.95551 30.7569V20.0893C5.95551 19.734 5.66799 19.4465 5.31278 19.4465Z" fill="white"/>
<path d="M30.2718 19.4465C29.917 19.4465 29.629 19.734 29.629 20.0893V30.7569C29.629 31.1117 29.917 31.3996 30.2718 31.3996C30.6265 31.3996 30.9145 31.1117 30.9145 30.7569V20.0893C30.9145 19.734 30.627 19.4465 30.2718 19.4465Z" fill="white"/>
<path d="M40.8293 8.20215H9.37057C9.01535 8.20215 8.72784 8.48966 8.72784 8.84488V12.0238H5.8484C5.49319 12.0238 5.20567 12.3113 5.20567 12.6666V16.2007H2.01987C1.66465 16.2007 1.37714 16.4882 1.37714 16.8435V34.0031C1.37714 34.3579 1.66465 34.6458 2.01987 34.6458H33.479C33.8338 34.6458 34.1217 34.3579 34.1217 34.0031V30.4689H37.308C37.6627 30.4689 37.9507 30.181 37.9507 29.8262V26.6472H40.8297C41.1845 26.6472 41.4724 26.3593 41.4724 26.0045V8.84488C41.472 8.48966 41.1841 8.20215 40.8293 8.20215ZM2.6626 33.3604V17.4862H32.8363V29.8219C32.8363 29.8232 32.8358 29.8245 32.8358 29.8262C32.8358 29.8279 32.8363 29.8288 32.8363 29.8305V33.3604H2.6626V33.3604ZM36.6648 29.1835H34.1213V16.8435C34.1213 16.4882 33.8334 16.2007 33.4786 16.2007H6.49113V13.3093H36.6648V29.1835ZM40.1865 25.3618H37.9503V12.6666C37.9503 12.3113 37.6623 12.0238 37.3075 12.0238H10.0133V9.48761H40.1865V25.3618Z" fill="white"/>
</svg>
