<svg width="43" height="43" viewBox="0 0 43 43" fill="none" xmlns="http://www.w3.org/2000/svg">
<path d="M33.5843 9.55417C31.6443 7.19852 28.8609 5.49135 25.5353 4.61727C23.1179 3.98199 21.2503 3.99719 21.0547 4.00083C20.8584 3.99698 18.9911 3.98192 16.5741 4.61727C13.2485 5.49135 10.4651 7.19845 8.52519 9.55403C6.18611 12.3932 5 16.1868 5 20.8294V21.0697L17.1995 33.2692C16.8121 33.3984 16.3599 33.592 15.9075 33.8799C14.8142 34.5756 13.511 35.9636 13.511 38.625V39.2052H28.5985V38.625C28.5985 35.9636 27.2952 34.5756 26.202 33.8799C25.7496 33.592 25.2974 33.3985 24.91 33.2692L37.1094 21.0697V20.8294C37.1094 16.1868 35.9233 12.3932 33.5843 9.55417ZM21.635 5.17484C22.3565 5.20984 23.7004 5.33175 25.2749 5.74892C27.331 6.29378 30.1997 7.46682 32.4121 9.96955L21.635 31.5245V5.17484ZM16.8345 5.74892C18.4091 5.33168 19.753 5.2097 20.4744 5.17477V31.5231L9.69728 9.96955C11.9097 7.46682 14.7784 6.29378 16.8345 5.74892ZM6.16177 20.5902C6.19773 16.6965 7.11857 13.4669 8.90069 10.9713L19.9231 33.0155H18.587L6.16177 20.5902ZM25.5789 34.8591C26.6688 35.5527 27.284 36.6227 27.4125 38.0447H14.6976C15.011 34.6592 18.0508 34.2141 18.3776 34.1761H23.7304C23.8702 34.1936 24.733 34.3207 25.5789 34.8591ZM23.5224 33.0155H22.187L33.2088 10.9712C34.9909 13.4668 35.9116 16.6964 35.9477 20.5901L23.5224 33.0155Z" fill="white"/>
</svg>
