<svg width="43" height="43" viewBox="0 0 43 43" fill="none" xmlns="http://www.w3.org/2000/svg">
<path d="M37.278 27.2475L28.8057 32.267L25.5786 30.2277H29.6359C30.2569 30.2277 30.8525 29.981 31.2916 29.5419C31.7308 29.1027 31.9775 28.5072 31.9775 27.8861C31.9775 27.2651 31.7308 26.6695 31.2916 26.2304C30.8525 25.7912 30.2569 25.5445 29.6359 25.5445H22.6665C21.8649 25.5398 21.0695 25.6842 20.3207 25.9703L14.9009 28.4311V27.8861C14.9009 27.7168 14.8337 27.5543 14.7139 27.4346C14.5941 27.3148 14.4317 27.2475 14.2623 27.2475H9.57917C9.40979 27.2475 9.24736 27.3148 9.1276 27.4346C9.00783 27.5543 8.94055 27.7168 8.94055 27.8861V38.5297C8.94055 38.6991 9.00783 38.8615 9.1276 38.9813C9.24736 39.101 9.40979 39.1683 9.57917 39.1683H14.2623C14.4317 39.1683 14.5941 39.101 14.7139 38.9813C14.8337 38.8615 14.9009 38.6991 14.9009 38.5297V37.8911H28.1373C28.975 37.8925 29.7917 37.6287 30.4704 37.1375L39.5216 30.6535C39.9 30.3273 40.1467 29.8745 40.2157 29.3797C40.2846 28.8849 40.1711 28.3819 39.8962 27.9647C39.6214 27.5475 39.2041 27.2446 38.7223 27.1127C38.2404 26.9807 37.727 27.0286 37.278 27.2475V27.2475ZM13.6237 37.8911H10.2178V28.5247H13.6237V37.8911ZM38.7808 29.6359L29.7253 36.103C29.2631 36.4364 28.7072 36.6152 28.1373 36.6139H14.9009V29.8318L20.8103 27.1624C21.4028 26.9358 22.0321 26.8203 22.6665 26.8218H29.6359C29.9182 26.8218 30.1889 26.9339 30.3885 27.1335C30.5881 27.3331 30.7003 27.6038 30.7003 27.8861C30.7003 28.1684 30.5881 28.4391 30.3885 28.6387C30.1889 28.8383 29.9182 28.9505 29.6359 28.9505H23.3732C23.2346 28.9503 23.0997 28.9952 22.9889 29.0785C22.8781 29.1617 22.7974 29.2787 22.7589 29.4119C22.7205 29.5451 22.7264 29.6871 22.7757 29.8166C22.8251 29.9461 22.9153 30.056 23.0326 30.1298L28.4523 33.5357C28.5529 33.5975 28.6686 33.6302 28.7865 33.6302C28.9045 33.6302 29.0202 33.5975 29.1208 33.5357L37.9336 28.3034C38.1062 28.2022 38.3111 28.1714 38.5058 28.2172C38.7006 28.2629 38.8702 28.3819 38.9797 28.5493C39.0891 28.7168 39.1299 28.9199 39.0937 29.1166C39.0575 29.3134 38.947 29.4886 38.7851 29.6061L38.7808 29.6359Z" fill="white"/>
<path d="M40.2326 22.1387H38.7425C38.635 18.2252 37.132 14.4791 34.5049 11.5764C31.8778 8.67376 28.2997 6.80578 24.4163 6.30963C24.7724 5.91145 25.0057 5.4187 25.0879 4.89087C25.1701 4.36303 25.0978 3.82268 24.8797 3.33503C24.6616 2.84737 24.3071 2.43327 23.8588 2.1427C23.4105 1.85213 22.8878 1.69751 22.3536 1.69751C21.8194 1.69751 21.2966 1.85213 20.8483 2.1427C20.4 2.43327 20.0455 2.84737 19.8274 3.33503C19.6093 3.82268 19.537 4.36303 19.6192 4.89087C19.7015 5.4187 19.9347 5.91145 20.2908 6.30963C16.4063 6.80401 12.8267 8.67133 10.1986 11.5743C7.57045 14.4772 6.06719 18.2243 5.96034 22.1387H4.0445C3.87513 22.1387 3.71269 22.206 3.59293 22.3258C3.47317 22.4455 3.40588 22.608 3.40588 22.7774C3.40588 22.9467 3.47317 23.1092 3.59293 23.2289C3.71269 23.3487 3.87513 23.416 4.0445 23.416H40.2326C40.402 23.416 40.5644 23.3487 40.6842 23.2289C40.804 23.1092 40.8712 22.9467 40.8712 22.7774C40.8712 22.608 40.804 22.4455 40.6842 22.3258C40.5644 22.206 40.402 22.1387 40.2326 22.1387ZM22.3514 2.98033C22.6461 2.98033 22.9342 3.06772 23.1793 3.23145C23.4243 3.39519 23.6153 3.62791 23.7281 3.90019C23.8409 4.17247 23.8704 4.47208 23.8129 4.76113C23.7554 5.05018 23.6135 5.31569 23.4051 5.52408C23.1967 5.73248 22.9312 5.8744 22.6421 5.93189C22.3531 5.98939 22.0535 5.95988 21.7812 5.8471C21.5089 5.73431 21.2762 5.54332 21.1125 5.29828C20.9487 5.05323 20.8613 4.76514 20.8613 4.47042C20.8613 4.07523 21.0183 3.69621 21.2978 3.41677C21.5772 3.13732 21.9562 2.98033 22.3514 2.98033V2.98033ZM22.3514 7.45062C26.2862 7.45229 30.0655 8.98713 32.8873 11.7294C35.7091 14.4717 37.3512 18.2056 37.4653 22.1387H7.23757C7.35163 18.2056 8.9938 14.4717 11.8156 11.7294C14.6374 8.98713 18.4166 7.45229 22.3514 7.45062V7.45062Z" fill="white"/>
<path d="M18.92 10.4774C17.1657 10.9742 15.5407 11.8474 14.1584 13.0364C12.7761 14.2253 11.6696 15.7014 10.916 17.3617C10.8737 17.439 10.8478 17.5243 10.84 17.6122C10.8322 17.7001 10.8428 17.7886 10.8709 17.8722C10.899 17.9558 10.9442 18.0327 11.0035 18.0979C11.0628 18.1632 11.1351 18.2155 11.2156 18.2515C11.2961 18.2875 11.3832 18.3064 11.4714 18.3071C11.5597 18.3077 11.647 18.2901 11.7281 18.2553C11.8091 18.2205 11.8821 18.1692 11.9424 18.1048C12.0027 18.0404 12.049 17.9643 12.0783 17.8811C12.7567 16.3917 13.7514 15.0679 14.9932 14.0018C16.235 12.9357 17.6941 12.1529 19.2691 11.7078C19.3499 11.6849 19.4254 11.6463 19.4912 11.5942C19.5571 11.5421 19.6121 11.4775 19.653 11.4042C19.6939 11.3309 19.72 11.2502 19.7297 11.1668C19.7395 11.0834 19.7327 10.9988 19.7098 10.9181C19.6868 10.8373 19.6482 10.7618 19.5961 10.6959C19.544 10.63 19.4795 10.5751 19.4061 10.5342C19.3328 10.4933 19.2521 10.4672 19.1687 10.4574C19.0853 10.4477 19.0008 10.4545 18.92 10.4774V10.4774Z" fill="white"/>
</svg>
