<svg width="43" height="43" viewBox="0 0 43 43" fill="none" xmlns="http://www.w3.org/2000/svg">
<path d="M19.0559 16.3473L17.9299 15.2214C17.4751 14.7665 17.2246 14.1618 17.2246 13.5186V7.71254C17.5876 7.39319 17.8174 6.92572 17.8174 6.40543C17.8174 5.4453 17.0362 4.66418 16.0761 4.66418H13.7051C12.7449 4.66418 11.9638 5.4453 11.9638 6.40543C11.9638 6.9258 12.1936 7.39327 12.5566 7.71254V13.5186C12.5566 14.1618 12.3061 14.7665 11.8513 15.2214L10.7253 16.3473C9.61277 17.4599 9 18.9391 9 20.5126V40.7857C9 41.7458 9.78111 42.5269 10.7412 42.5269H19.0399C20.0001 42.5269 20.7812 41.7458 20.7812 40.7857V20.5126C20.7812 18.9391 20.1684 17.4599 19.0559 16.3473ZM13.7051 5.77562H16.0761C16.4234 5.77562 16.7059 6.05814 16.7059 6.40543C16.7059 6.75271 16.4234 7.03524 16.0761 7.03524H13.7051C13.3578 7.03524 13.0752 6.75271 13.0752 6.40543C13.0752 6.05814 13.3578 5.77562 13.7051 5.77562ZM10.1114 28.8934H11.334C11.6409 28.8934 11.8897 28.6446 11.8897 28.3377C11.8897 28.0308 11.6409 27.782 11.334 27.782H10.1114V26.5223H12.5195C12.8264 26.5223 13.0752 26.2735 13.0752 25.9666C13.0752 25.6597 12.8264 25.4109 12.5195 25.4109H10.1114V23.5585H13.7051C14.0523 23.5585 14.3349 23.841 14.3349 24.1883V33.6725C14.3349 34.0198 14.0523 34.3023 13.7051 34.3023H10.1114V28.8934ZM19.6697 40.7857C19.6697 41.133 19.3872 41.4155 19.0399 41.4155H10.7412C10.394 41.4155 10.1114 41.133 10.1114 40.7857V35.4138H13.7051C14.6652 35.4138 15.4463 34.6327 15.4463 33.6725V24.1883C15.4463 23.2282 14.6652 22.4471 13.7051 22.4471H10.1114V20.5126C10.1114 19.236 10.6085 18.0359 11.5112 17.1333L12.6372 16.0073C13.302 15.3425 13.6681 14.4587 13.6681 13.5187V8.14571C13.6805 8.146 13.6927 8.14667 13.7051 8.14667H16.0762C16.0886 8.14667 16.1009 8.146 16.1132 8.14571V13.5186C16.1132 14.4587 16.4793 15.3425 17.1441 16.0072L18.2701 17.1332C19.1726 18.0359 19.6697 19.236 19.6697 20.5126V40.7857Z" fill="white"/>
<path d="M17.8544 19.9569C17.5475 19.9569 17.2987 20.2057 17.2987 20.5126V25.9666C17.2987 26.2735 17.5475 26.5224 17.8544 26.5224C18.1613 26.5224 18.4101 26.2735 18.4101 25.9666V20.5126C18.4101 20.2057 18.1613 19.9569 17.8544 19.9569Z" fill="white"/>
<path d="M16.5934 18.8099C16.7019 18.9184 16.8442 18.9727 16.9863 18.9727C17.1285 18.9727 17.2708 18.9184 17.3793 18.8099C17.5963 18.5928 17.5963 18.241 17.3793 18.024L16.2533 16.8981C16.0364 16.681 15.6845 16.681 15.4675 16.8981C15.2504 17.1151 15.2504 17.4669 15.4675 17.6839L16.5934 18.8099Z" fill="white"/>
<path d="M13.1123 39.0444H12.4825V37.2291C12.4825 36.9222 12.2337 36.6733 11.9268 36.6733C11.6199 36.6733 11.3711 36.9222 11.3711 37.2291V39.6001C11.3711 39.907 11.6199 40.1558 11.9268 40.1558H13.1123C13.4192 40.1558 13.668 39.907 13.668 39.6001C13.668 39.2932 13.4192 39.0444 13.1123 39.0444Z" fill="white"/>
<path d="M16.6689 39.0444H15.4834C15.1765 39.0444 14.9277 39.2932 14.9277 39.6001C14.9277 39.907 15.1765 40.1558 15.4834 40.1558H16.6689C16.9758 40.1558 17.2246 39.907 17.2246 39.6001C17.2246 39.2932 16.9758 39.0444 16.6689 39.0444Z" fill="white"/>
<path d="M32.2747 12.6831L31.1487 11.5572C30.6939 11.1023 30.4434 10.4976 30.4434 9.8544V4.04836C30.8064 3.72901 31.0362 3.26154 31.0362 2.74124C31.0362 1.78111 30.2551 1 29.2949 1H26.9239C25.9637 1 25.1826 1.78111 25.1826 2.74124C25.1826 3.26161 25.4124 3.72908 25.7754 4.04836V9.8544C25.7754 10.4976 25.5249 11.1023 25.0701 11.5572L23.9441 12.6831C22.8316 13.7957 22.2188 15.2749 22.2188 16.8484V37.1215C22.2188 38.0816 22.9999 38.8628 23.9601 38.8628H32.2587C33.2189 38.8628 34 38.0816 34 37.1215V16.8484C34 15.2749 33.3872 13.7957 32.2747 12.6831ZM26.9239 2.11143H29.2949C29.6422 2.11143 29.9247 2.39396 29.9247 2.74124C29.9247 3.08853 29.6422 3.37105 29.2949 3.37105H26.9239C26.5766 3.37105 26.2941 3.08853 26.2941 2.74124C26.2941 2.39396 26.5766 2.11143 26.9239 2.11143ZM23.3302 25.2292H24.5528C24.8597 25.2292 25.1085 24.9804 25.1085 24.6735C25.1085 24.3666 24.8597 24.1178 24.5528 24.1178H23.3302V22.8581H25.7383C26.0452 22.8581 26.2941 22.6093 26.2941 22.3024C26.2941 21.9955 26.0452 21.7467 25.7383 21.7467H23.3302V19.8943H26.9239C27.2712 19.8943 27.5537 20.1769 27.5537 20.5241V30.0084C27.5537 30.3556 27.2712 30.6382 26.9239 30.6382H23.3302V25.2292ZM32.8886 37.1215C32.8886 37.4688 32.606 37.7513 32.2587 37.7513H23.9601C23.6128 37.7513 23.3302 37.4688 23.3302 37.1215V31.7496H26.9239C27.884 31.7496 28.6651 30.9685 28.6651 30.0084V20.5241C28.6651 19.564 27.884 18.7829 26.9239 18.7829H23.3302V16.8484C23.3302 15.5718 23.8273 14.3717 24.7301 13.4691L25.856 12.3431C26.5208 11.6783 26.8869 10.7945 26.8869 9.85448V4.48152C26.8993 4.48182 26.9115 4.48248 26.9239 4.48248H29.295C29.3074 4.48248 29.3197 4.48182 29.332 4.48152V9.8544C29.332 10.7945 29.6982 11.6783 30.3629 12.343L31.4889 13.469C32.3914 14.3717 32.8886 15.5718 32.8886 16.8484V37.1215Z" fill="white"/>
<path d="M31.0732 16.2927C30.7663 16.2927 30.5175 16.5415 30.5175 16.8484V22.3025C30.5175 22.6094 30.7663 22.8582 31.0732 22.8582C31.3801 22.8582 31.6289 22.6094 31.6289 22.3025V16.8484C31.6289 16.5415 31.3801 16.2927 31.0732 16.2927Z" fill="white"/>
<path d="M29.8122 15.1457C29.9207 15.2542 30.063 15.3085 30.2052 15.3085C30.3473 15.3085 30.4896 15.2542 30.5981 15.1457C30.8151 14.9287 30.8151 14.5769 30.5981 14.3598L29.4721 13.2339C29.2552 13.0168 28.9033 13.0168 28.6863 13.2339C28.4692 13.4509 28.4692 13.8027 28.6863 14.0197L29.8122 15.1457Z" fill="white"/>
<path d="M26.3311 35.3803H25.7013V33.5649C25.7013 33.258 25.4525 33.0092 25.1456 33.0092C24.8387 33.0092 24.5898 33.258 24.5898 33.5649V35.936C24.5898 36.2429 24.8387 36.4917 25.1456 36.4917H26.3311C26.638 36.4917 26.8868 36.2429 26.8868 35.936C26.8868 35.6291 26.638 35.3803 26.3311 35.3803Z" fill="white"/>
<path d="M29.8877 35.3802H28.7022C28.3953 35.3802 28.1465 35.6291 28.1465 35.936C28.1465 36.2429 28.3953 36.4917 28.7022 36.4917H29.8877C30.1946 36.4917 30.4434 36.2429 30.4434 35.936C30.4434 35.6291 30.1946 35.3802 29.8877 35.3802Z" fill="white"/>
</svg>
